<svg xmlns="http://www.w3.org/2000/svg" viewBox="0 0 900 600" role="img" aria-label="Hot dog ilustrativo">
  <defs>
    <linearGradient id="bg" x1="0" x2="1" y1="0" y2="1">
      <stop offset="0" stop-color="#fff2d8"/>
      <stop offset="1" stop-color="#f5b45b"/>
    </linearGradient>
    <linearGradient id="bread" x1="0" x2="1">
      <stop offset="0" stop-color="#f6c071"/>
      <stop offset="1" stop-color="#d88a32"/>
    </linearGradient>
  </defs>
  <rect width="900" height="600" fill="url(#bg)"/>
  <ellipse cx="450" cy="442" rx="330" ry="54" fill="#7b3a17" opacity=".18"/>
  <g transform="rotate(-8 450 300)">
    <rect x="145" y="210" width="610" height="180" rx="90" fill="url(#bread)"/>
    <rect x="180" y="260" width="540" height="82" rx="41" fill="#7b2f1d"/>
    <path d="M205 298c70-52 133 52 203 0s133 52 203 0" fill="none" stroke="#f5d338" stroke-width="26" stroke-linecap="round"/>
    <path d="M224 326c70-44 126 43 196 0s126 43 196 0" fill="none" stroke="#d62222" stroke-width="18" stroke-linecap="round"/>
    <path d="M176 234c170-80 384-78 552 0" fill="none" stroke="#ffe0a4" stroke-width="24" stroke-linecap="round" opacity=".8"/>
    <circle cx="292" cy="247" r="8" fill="#f8e0ad"/>
    <circle cx="381" cy="226" r="7" fill="#f8e0ad"/>
    <circle cx="515" cy="230" r="7" fill="#f8e0ad"/>
    <circle cx="625" cy="252" r="8" fill="#f8e0ad"/>
  </g>
  <text x="450" y="530" text-anchor="middle" fill="#32160d" font-family="Arial, sans-serif" font-size="44" font-weight="800">TOP DOG</text>
</svg>
